<?xml version="1.0" encoding="UTF-8"?>
<svg xmlns="http://www.w3.org/2000/svg" xmlns:xlink="http://www.w3.org/1999/xlink" width="378pt" height="49pt"
    viewBox="0 0 378 49" version="1.2">
    <g id="surface1">
        <path style=" stroke:none;fill-rule:nonzero;fill:rgb(0%,0%,0%);fill-opacity:1;"
            d="M 352.882812 7.890625 C 352.910156 7.242188 352.9375 6.597656 352.960938 5.949219 C 354.945312 5.40625 353.6875 1.03125 355.695312 0.308594 L 356.363281 0.308594 C 356.574219 1.082031 357.1875 2.097656 357.4375 2.921875 C 357.4375 3.492188 357.4375 4.058594 357.4375 4.628906 C 358.144531 7.820312 357.667969 9.195312 357.046875 11.925781 C 353.976562 12.300781 354.253906 9.710938 352.882812 7.890625 Z M 360.972656 30.328125 C 360.949219 26.660156 363.941406 27.410156 366.625 26.601562 C 367.828125 26.238281 369.96875 25.21875 370.785156 24.351562 C 371.210938 23.898438 371.367188 23.160156 371.804688 22.71875 C 371.648438 22.480469 371.546875 21.996094 371.414062 21.710938 C 370.832031 21.40625 370.023438 20.796875 369.527344 20.625 C 368.742188 20.347656 367.898438 20.558594 367.253906 20.234375 C 363.4375 20.589844 357.691406 23.652344 356.417969 26.214844 C 356.390625 26.886719 356.363281 27.558594 356.339844 28.230469 C 356.972656 28.605469 357.449219 29.230469 357.828125 29.863281 C 357.722656 31.53125 357.769531 33.492188 355.867188 33.589844 C 355.285156 33.210938 354.992188 32.988281 354.453125 32.503906 C 353.816406 33.003906 353.550781 33.097656 352.570312 32.890625 C 352.050781 31.910156 349.636719 26.289062 349.898438 25.4375 C 350.191406 24.605469 351.628906 24.351562 352.253906 24.039062 C 353.769531 23.28125 354.878906 21.5 356.179688 20.46875 C 356.867188 19.925781 357.734375 20.101562 358.613281 19.691406 C 360.679688 18.726562 362.175781 16.425781 363.875 14.722656 C 365.730469 12.863281 368.464844 12.566406 370 10.453125 C 369.945312 10.347656 369.894531 10.246094 369.84375 10.140625 C 369.816406 10.140625 369.789062 10.140625 369.765625 10.140625 C 368.601562 11.191406 365.140625 13.558594 362.855469 11.925781 C 362.101562 11.390625 362.109375 10.011719 361.597656 9.210938 C 361.277344 8.710938 360.503906 8.515625 360.421875 7.8125 C 360.550781 7.449219 360.683594 7.089844 360.8125 6.726562 C 362.347656 6.710938 365.265625 8.75 366.152344 9.597656 C 368.304688 8.921875 370.503906 8.28125 372.589844 7.113281 C 373.390625 6.667969 374.621094 7.609375 374.945312 7.347656 C 375.984375 8.09375 377.558594 12.097656 375.496094 12.9375 C 374.535156 13.222656 372.992188 13.144531 371.964844 13.402344 C 369.472656 14.023438 366.367188 15.585938 364.738281 17.207031 C 364.765625 17.257812 364.792969 17.308594 364.816406 17.363281 C 364.871094 17.363281 364.921875 17.363281 364.976562 17.363281 C 365.902344 17.628906 367.597656 17.015625 368.824219 17.59375 C 371.722656 18.96875 375.40625 20.125 375.339844 24.660156 C 374.769531 24.875 374.441406 25.421875 373.847656 25.667969 C 372.339844 26.296875 370.804688 26.203125 369.605469 26.988281 C 369.605469 27.144531 369.605469 27.300781 369.605469 27.457031 C 369.921875 27.867188 370.242188 28.292969 370.234375 29.320312 C 369.761719 29.636719 369.871094 30.257812 369.527344 30.714844 C 368.363281 32.277344 366.71875 33.539062 366.230469 35.375 C 366.519531 35.683594 366.808594 35.996094 367.09375 36.304688 C 369.25 37.109375 378.730469 32.03125 377.378906 37.625 C 377.1875 38.414062 376.671875 38.777344 376.4375 39.410156 C 375.289062 39.425781 374.78125 39.210938 374.003906 39.023438 C 372.660156 38.699219 368.390625 40.210938 367.644531 40.730469 C 367.871094 42.167969 368.035156 43.519531 368.039062 45.390625 C 367.65625 45.582031 367.578125 46.035156 367.253906 46.246094 C 366.546875 46.695312 365.765625 46.683594 364.976562 47.019531 C 364.511719 47.21875 363.605469 47.878906 362.933594 48.109375 C 358.410156 49.644531 353.828125 45.566406 352.804688 42.59375 C 352.832031 42.570312 352.855469 42.542969 352.882812 42.515625 C 354.164062 42.53125 356.007812 43.976562 357.28125 44.613281 C 357.882812 44.640625 358.484375 44.664062 359.085938 44.691406 C 362.472656 44.691406 364.59375 43.335938 366.074219 41.277344 C 366.046875 41.015625 366.023438 40.757812 365.996094 40.5 C 365.8125 40.394531 365.628906 40.292969 365.445312 40.1875 C 363.585938 39.414062 360.382812 41.195312 358.851562 41.429688 C 357.230469 41.679688 353.519531 41.605469 352.253906 40.808594 C 351.933594 40.605469 351.6875 40.058594 351.46875 39.957031 C 351.46875 39.617188 351.46875 39.28125 351.46875 38.945312 C 351.8125 38.6875 352.148438 38.429688 352.492188 38.167969 C 354.742188 38.167969 356.992188 38.167969 359.242188 38.167969 C 359.914062 37.972656 360.746094 37.296875 361.363281 37.082031 C 362.335938 36.746094 363.335938 36.859375 364.1875 36.695312 C 364.320312 36.539062 364.449219 36.382812 364.582031 36.230469 C 364.527344 35.621094 363.960938 34.882812 364.269531 33.976562 C 364.824219 32.339844 365.507812 31.246094 366.308594 29.628906 C 366.121094 29.378906 365.921875 29.21875 365.601562 29.320312 C 364.210938 29.417969 363.085938 30.324219 360.972656 30.328125 Z M 318.492188 31.804688 C 318.460938 31.339844 318.21875 31.527344 318.492188 31.335938 C 318.785156 29.679688 321.675781 28.734375 323.441406 29.863281 C 325.785156 31.359375 329.976562 34.300781 329.5625 38.324219 C 327.824219 39.136719 327.789062 40.917969 325.089844 40.808594 C 324.871094 40.242188 324.042969 39.691406 323.675781 39.179688 C 323.519531 38.53125 323.359375 37.886719 323.203125 37.238281 C 322.507812 35.578125 320.066406 31.9375 318.492188 31.804688 Z M 304.4375 21.632812 C 304.515625 21.425781 304.597656 21.21875 304.675781 21.011719 C 305.886719 21.136719 307.191406 21.4375 308.363281 21.789062 C 309.78125 22.210938 314.492188 20.433594 314.804688 19.847656 C 315.59375 18.492188 315.394531 10.46875 314.804688 9.210938 C 314.261719 8.0625 313.402344 7.699219 313.390625 5.871094 C 314.550781 5.398438 314.519531 5.226562 316.453125 5.25 C 318.582031 6.726562 318.652344 10.03125 318.648438 13.558594 C 318.648438 14.761719 318.296875 18.453125 318.492188 18.605469 C 319.480469 18.890625 323.035156 17.480469 323.675781 17.050781 C 323.785156 15.867188 323.332031 15.351562 322.496094 14.722656 C 322.523438 14.335938 322.550781 13.945312 322.578125 13.558594 C 322.734375 13.585938 322.890625 13.609375 323.046875 13.636719 C 323.726562 13.996094 324.296875 14.789062 325.011719 15.03125 C 326.9375 15.695312 328.886719 15.28125 330.742188 15.808594 C 330.855469 16.140625 330.925781 16.054688 331.054688 16.351562 C 331.054688 16.820312 331.054688 17.285156 331.054688 17.75 C 330.617188 17.945312 330.507812 18.523438 330.113281 18.761719 C 329.582031 19.074219 328.039062 18.921875 327.367188 19.148438 C 325.53125 19.761719 318.519531 22.535156 317.238281 23.882812 C 316.453125 24.707031 316.871094 26.222656 316.453125 27.457031 C 315.296875 30.839844 312.921875 38.078125 308.207031 36.230469 C 307.867188 36.203125 307.527344 36.175781 307.1875 36.152344 C 306.523438 35.765625 305.964844 35.046875 305.304688 34.675781 C 305.328125 34.363281 305.355469 34.054688 305.382812 33.742188 C 305.921875 33.515625 306.59375 32.566406 306.953125 32.425781 C 308.160156 31.941406 309.355469 32.128906 310.328125 31.648438 C 311.59375 31.023438 314.164062 26.667969 313.703125 25.28125 C 311.730469 24.949219 309.289062 25.296875 307.109375 25.28125 C 306.539062 24.460938 305.5625 23.90625 304.988281 23.105469 C 304.675781 22.671875 304.703125 22.097656 304.4375 21.632812 Z M 277.902344 5.5625 C 277.902344 5.199219 277.902344 4.835938 277.902344 4.472656 C 278.03125 4.371094 278.160156 4.265625 278.292969 4.164062 C 281.363281 4.496094 287.253906 4.898438 287.164062 8.976562 C 285.914062 10.953125 285.398438 12.480469 282.21875 11.460938 C 281.976562 10.945312 281.679688 10.230469 281.433594 9.753906 C 280.988281 9.652344 280.542969 9.546875 280.097656 9.441406 C 280.140625 8.058594 278.667969 5.871094 277.902344 5.5625 Z M 264.238281 31.414062 C 264.929688 31.707031 265.847656 31.699219 266.4375 31.335938 C 266.988281 30.996094 267.523438 31.304688 267.929688 30.871094 C 268.8125 29.929688 267.945312 27.179688 266.988281 26.757812 C 266.753906 26.757812 266.515625 26.757812 266.28125 26.757812 L 264.316406 31.261719 C 264.289062 31.3125 264.265625 31.363281 264.238281 31.414062 Z M 255.601562 39.257812 C 255.65625 38.003906 256.296875 36.875 256.546875 35.683594 C 256.707031 34.90625 256.273438 33.828125 256.308594 33.121094 C 258.242188 32.789062 260.871094 28.335938 262.511719 26.988281 C 263.175781 26.445312 264.28125 25.617188 265.101562 25.359375 C 265.441406 25.410156 265.78125 25.464844 266.121094 25.515625 C 267.359375 25.765625 268.441406 25.347656 269.105469 25.046875 C 269.132812 24.582031 269.144531 24.050781 268.949219 23.804688 C 268.882812 23.652344 268.492188 23.015625 268.398438 23.183594 C 267.742188 23.210938 267.226562 23.855469 266.671875 24.195312 C 266.28125 24.195312 265.886719 24.195312 265.496094 24.195312 C 263.210938 24.195312 261.691406 22.023438 262.199219 19.613281 C 264.257812 20.234375 267.714844 20.21875 269.421875 18.992188 C 269.8125 16.015625 270.128906 11.746094 271.226562 9.367188 C 271.636719 8.476562 270.683594 6.226562 271.304688 4.550781 C 271.722656 4.550781 272.144531 4.550781 272.5625 4.550781 C 272.796875 4.886719 273.03125 5.226562 273.269531 5.5625 C 273.476562 6.085938 274.546875 11.789062 274.367188 12.316406 C 274.050781 13.261719 272.910156 16.628906 273.347656 17.519531 C 273.398438 17.621094 273.453125 17.726562 273.503906 17.828125 C 275.113281 17.84375 276.96875 16.828125 277.507812 15.5 C 277.914062 14.507812 277.019531 14.117188 277.195312 13.558594 C 277.324219 13.558594 277.453125 13.558594 277.585938 13.558594 C 278.472656 14.0625 281.871094 14.535156 283.160156 14.722656 C 283.160156 15.238281 283.160156 15.757812 283.160156 16.277344 C 282.976562 16.378906 282.796875 16.480469 282.613281 16.585938 C 282.53125 16.480469 282.453125 16.378906 282.375 16.277344 C 280.164062 17.03125 275.195312 19.265625 274.683594 20.933594 C 274.132812 20.910156 273.429688 20.882812 273.109375 21.089844 C 271.503906 22.03125 272.757812 24.410156 272.167969 26.445312 C 271.992188 27.054688 271.710938 27.914062 271.855469 28.699219 C 272.144531 28.722656 272.429688 28.75 272.71875 28.777344 C 273.777344 26.828125 276.644531 26.011719 278.765625 27.6875 C 280.523438 29.082031 279.167969 30.464844 279.863281 32.503906 C 280.269531 33.695312 281.5625 34.339844 282.0625 35.917969 C 282.089844 36.003906 282.277344 36.339844 282.375 36.152344 C 283.726562 39.878906 278.355469 39.867188 276.328125 39.722656 C 276.085938 39.257812 275.503906 38.75 275.308594 38.246094 C 274.476562 36.070312 274.527344 33.144531 272.484375 32.191406 C 269.132812 34.578125 272.992188 39.699219 271.382812 43.761719 C 271.359375 43.761719 271.332031 43.761719 271.304688 43.761719 C 270.914062 43.386719 270.214844 43.347656 269.8125 42.984375 C 268.816406 42.070312 268.089844 40.335938 267.613281 38.636719 C 267.136719 36.917969 268.652344 35.457031 268.164062 34.441406 C 267.972656 34.324219 267.902344 34.230469 267.773438 34.054688 C 266.394531 33.984375 264.234375 34.546875 263.769531 35.683594 C 263.484375 36.378906 263.699219 36.871094 263.375 37.546875 C 262.796875 38.753906 260.644531 42.105469 259.527344 42.671875 C 258.585938 42.96875 257.542969 42.40625 256.9375 41.898438 C 257.359375 40.589844 256.347656 39.390625 255.601562 39.257812 Z M 228.59375 16.277344 C 228.808594 16.449219 228.742188 16.457031 229.140625 16.507812 C 230.136719 16.074219 232.621094 15.5625 233.148438 14.644531 C 233.148438 14.308594 233.148438 13.972656 233.148438 13.636719 C 232.632812 12.546875 231.316406 11.558594 230.398438 10.839844 C 230.347656 10.839844 230.292969 10.839844 230.242188 10.839844 C 229.621094 12 228.617188 14.652344 228.59375 16.277344 Z M 215.796875 33.820312 C 216.054688 34.703125 216.316406 35.582031 216.578125 36.460938 C 217.816406 38.679688 222.066406 39.988281 224.980469 38.324219 C 225.371094 37.128906 221.847656 32.15625 220.820312 31.335938 C 221.8125 31.335938 222.808594 31.335938 223.804688 31.335938 C 224.484375 31.742188 228.710938 33.128906 228.984375 32.96875 C 229.820312 32.285156 229.996094 26.558594 229.300781 26.136719 C 228.996094 25.957031 228.675781 25.992188 228.277344 26.058594 C 227.859375 26.882812 227.089844 28.269531 226.316406 28.929688 C 226.183594 28.929688 226.054688 28.929688 225.921875 28.929688 C 225.285156 27.957031 224.652344 27.046875 224.117188 25.824219 C 223.597656 24.640625 224.386719 22.6875 223.960938 21.710938 C 220.742188 21.28125 220.808594 23.652344 219.484375 25.28125 C 217.605469 27.589844 215.765625 29.824219 215.796875 33.820312 Z M 200.640625 35.0625 C 200.640625 34.546875 200.640625 34.03125 200.640625 33.511719 C 201.539062 33.039062 202.0625 32.019531 202.839844 31.414062 C 202.578125 30.730469 202.4375 29.972656 202.523438 29.085938 C 203.171875 29.078125 205.320312 29.554688 206.6875 29.085938 C 207.933594 28.65625 213.214844 26.871094 213.753906 25.980469 C 214.378906 24.945312 213.734375 21.96875 214.222656 20.933594 C 214.546875 20.253906 216.023438 18.195312 215.558594 17.285156 C 214.265625 15.675781 209.097656 18.976562 209.121094 14.878906 C 209.335938 14.835938 209.285156 14.828125 209.511719 14.644531 C 210.269531 14.636719 211.03125 14.785156 211.554688 15.03125 C 212.859375 14.472656 216.660156 13.128906 217.441406 11.851562 C 218.628906 9.914062 218.035156 7.570312 219.878906 6.027344 C 221.296875 5.882812 222.46875 6.171875 223.644531 6.726562 C 222.878906 9.164062 220.957031 10.261719 219.878906 12.472656 C 219.117188 14.027344 218.988281 17.050781 218.699219 18.527344 C 218.699219 19.042969 218.699219 19.5625 218.699219 20.078125 C 218.519531 20.074219 218.039062 22.015625 217.992188 22.410156 C 218.070312 22.488281 218.148438 22.5625 218.230469 22.640625 C 218.359375 22.617188 218.492188 22.589844 218.621094 22.5625 C 218.671875 22.5625 218.726562 22.5625 218.777344 22.5625 C 219.105469 22.308594 219.601562 21.839844 219.722656 21.398438 C 219.722656 21.113281 219.722656 20.832031 219.722656 20.546875 C 219.949219 20.152344 220.464844 19.792969 220.664062 19.382812 C 222.242188 19.421875 224.246094 18.996094 224.746094 18.140625 C 225.269531 17.035156 224.777344 14.761719 225.214844 13.867188 C 225.671875 12.945312 226.332031 10.777344 226.628906 9.753906 C 227.242188 7.640625 224.820312 5.75 226.160156 4.707031 C 227.136719 3.636719 229.199219 5.121094 229.691406 5.640625 C 230.734375 6.738281 229.578125 7.996094 230.085938 9.441406 C 230.5 10.628906 232.886719 11.550781 233.933594 12.082031 C 235.136719 12.238281 236.339844 12.394531 237.542969 12.546875 C 237.621094 12.652344 237.699219 12.757812 237.777344 12.859375 C 237.753906 13.144531 237.726562 13.429688 237.699219 13.714844 C 236.839844 15.246094 234.292969 16.21875 233.148438 17.050781 C 232.289062 17.675781 231.761719 18.929688 230.871094 19.457031 C 229.679688 20.164062 228.289062 19.882812 227.570312 21.011719 C 227.546875 21.269531 227.519531 21.527344 227.492188 21.789062 C 227.015625 21.707031 227.128906 22.597656 227.179688 22.875 C 228.21875 23.316406 231.796875 23.949219 232.28125 24.738281 C 233.296875 26.378906 233.179688 29.890625 232.675781 32.191406 C 232.523438 32.886719 232.183594 33.585938 232.359375 34.597656 C 236.566406 35.933594 242.664062 39.347656 237.308594 43.761719 C 233.105469 43.777344 233.09375 41.386719 230.007812 40.265625 C 229.363281 40.03125 227.222656 41.023438 226.867188 41.199219 C 226.394531 41.222656 225.921875 41.25 225.453125 41.277344 C 223.523438 41.90625 221.097656 42.355469 219.171875 41.898438 C 218.5625 40.578125 217.488281 39.230469 216.503906 38.324219 C 216.476562 38.324219 216.449219 38.324219 216.421875 38.324219 C 216.34375 38.402344 216.265625 38.480469 216.1875 38.558594 C 216.203125 40.457031 217.871094 42.898438 216.816406 44.691406 C 216.515625 44.546875 215.949219 44.65625 215.558594 44.457031 C 214.488281 43.917969 214.140625 42.730469 213.519531 41.742188 C 213.359375 41.222656 213.203125 40.707031 213.046875 40.1875 C 212.339844 39.566406 211.632812 38.945312 210.925781 38.324219 C 210.4375 37.746094 210.636719 36.40625 210.0625 35.917969 C 209.292969 35.265625 204.992188 38.140625 202.917969 37.238281 C 201.800781 36.753906 201.199219 35.851562 200.640625 35.0625 Z M 176.535156 11.152344 C 176.773438 10.996094 177.007812 10.839844 177.242188 10.6875 C 177.21875 10.253906 177.1875 10.285156 177.007812 10.066406 C 176.980469 10.066406 176.953125 10.066406 176.929688 10.066406 C 176.878906 10.089844 176.824219 10.117188 176.773438 10.140625 C 176.644531 10.53125 176.734375 10.8125 176.535156 11.152344 Z M 175.910156 11.539062 C 176.011719 11.617188 176.117188 11.695312 176.222656 11.773438 C 176.300781 11.71875 176.378906 11.667969 176.457031 11.617188 C 176.457031 11.589844 176.457031 11.566406 176.457031 11.539062 C 176.457031 11.4375 176.457031 11.332031 176.457031 11.230469 C 176.378906 11.203125 176.300781 11.175781 176.222656 11.152344 C 176.171875 11.175781 176.117188 11.203125 176.066406 11.230469 C 176.011719 11.332031 175.960938 11.4375 175.910156 11.539062 Z M 159.65625 11.851562 C 159.640625 10.226562 159.6875 8.816406 160.285156 7.582031 C 160.230469 7.011719 160.179688 6.441406 160.128906 5.871094 C 160.617188 5.816406 162.324219 5.40625 162.324219 5.40625 C 163.46875 7.394531 163.316406 9.757812 164.914062 11.386719 C 164.914062 12.160156 164.914062 12.9375 164.914062 13.714844 C 164.507812 13.886719 164.089844 14.507812 163.738281 14.800781 C 161.1875 14.84375 160.359375 13.390625 159.65625 11.851562 Z M 155.652344 29.398438 C 155.652344 28.335938 155.652344 27.273438 155.652344 26.214844 C 157.523438 25.929688 158.464844 24.265625 159.34375 22.953125 C 160.457031 21.28125 163.480469 19.144531 165.546875 17.90625 C 166.152344 17.539062 170.09375 15.566406 169.785156 15.421875 C 170.554688 15.042969 173.824219 13.621094 173.945312 12.78125 C 173.921875 12.730469 173.894531 12.679688 173.867188 12.625 C 173.371094 12.492188 170.722656 11.460938 170.335938 11.152344 C 169.921875 10.824219 169.578125 10.0625 169.234375 9.910156 C 169.234375 9.78125 169.234375 9.652344 169.234375 9.519531 C 171.414062 10.140625 176.070312 9.238281 177.164062 8.433594 C 177.804688 7.964844 178.613281 7.308594 179.519531 7.035156 C 180.621094 6.707031 184.507812 8.796875 185.09375 9.289062 C 185.070312 9.675781 185.042969 10.066406 185.015625 10.453125 C 184.527344 10.671875 183.890625 11.21875 183.445312 11.539062 C 183.238281 11.539062 183.027344 11.539062 182.816406 11.539062 C 181.539062 11.949219 177.625 12.964844 176.691406 13.945312 C 176.746094 14.179688 176.796875 14.410156 176.851562 14.644531 C 177.320312 14.878906 177.792969 15.109375 178.265625 15.34375 C 178.710938 15.371094 179.152344 15.394531 179.597656 15.421875 C 181.304688 16.320312 186.4375 22.996094 182.816406 25.667969 C 182.457031 25.933594 179.433594 26.914062 179.757812 27.066406 C 178.273438 27.628906 176.671875 26.46875 175.988281 27.765625 C 175.960938 28.515625 175.933594 29.265625 175.910156 30.019531 C 175.34375 31.125 173.886719 32.453125 173.003906 33.355469 C 172.964844 33.875 172.933594 34.0625 173.316406 34.210938 C 173.515625 34.632812 174.246094 34.738281 174.808594 34.753906 C 175.15625 34.332031 175.335938 34.183594 175.515625 33.511719 C 178.28125 33.488281 179.601562 34.503906 181.875 34.988281 C 182.132812 35.539062 182.910156 37.125 182.738281 37.546875 C 182.410156 37.929688 182.101562 38.464844 181.640625 38.714844 C 179.355469 39.324219 178.414062 37.011719 176.613281 37.316406 C 176.429688 37.085938 175.300781 38.160156 175.203125 38.480469 C 175.046875 38.992188 175.417969 39.539062 175.515625 39.800781 C 175.515625 40.316406 175.515625 40.835938 175.515625 41.351562 C 175.855469 43.347656 175.007812 44.859375 173.554688 45.546875 C 171.746094 46.398438 166.964844 45.046875 165.859375 44.460938 C 165.882812 44.175781 163.808594 43.066406 163.265625 42.984375 C 163.292969 42.929688 163.320312 42.878906 163.347656 42.828125 C 165.589844 42.382812 169.574219 41.898438 171.199219 40.730469 C 171.554688 40.476562 173.527344 39.277344 172.609375 38.714844 C 171.679688 38.332031 169.15625 38.636719 168.371094 39.023438 C 167.453125 39.480469 163.523438 38.398438 163.347656 38.246094 C 162.941406 37.914062 162.734375 37.601562 162.5625 37.160156 C 162.675781 36.9375 162.6875 36.925781 162.71875 36.773438 C 165.246094 36.789062 168.902344 36.363281 171.277344 35.917969 C 171.433594 35.710938 171.589844 35.503906 171.746094 35.296875 C 171.746094 35.195312 171.746094 35.089844 171.746094 34.988281 C 171.34375 34.671875 171.230469 34.484375 170.648438 34.289062 C 170.636719 33.246094 170.554688 32.140625 171.039062 31.335938 C 171.523438 30.542969 172.972656 28.703125 172.769531 27.6875 C 172.652344 27.433594 172.539062 27.28125 172.296875 27.144531 C 170.152344 26.296875 167.792969 30.660156 166.566406 29.398438 C 166.683594 28.042969 166.921875 26.414062 167.742188 25.515625 C 169.089844 24.039062 172.652344 24.105469 173.945312 25.515625 C 175.429688 25.550781 176.042969 24.917969 176.929688 24.429688 C 178.011719 23.828125 179.515625 23.417969 180.148438 22.410156 C 180.21875 22.292969 180.210938 21.957031 180.382812 22.175781 C 181.890625 19.511719 177.902344 16.996094 176.457031 16.585938 C 173.808594 15.832031 170.601562 18.960938 169.703125 20.15625 C 167.886719 22.585938 164.496094 24.257812 162.480469 26.757812 C 161.632812 27.8125 161.824219 29.289062 161.304688 30.714844 C 161.007812 31.53125 160.453125 32.480469 160.046875 33.199219 C 158.414062 33.421875 156.679688 32.425781 156.042969 31.261719 C 155.675781 30.589844 156.101562 29.894531 155.652344 29.398438 Z M 134.6875 23.574219 C 134.933594 23.550781 135.289062 23.414062 135.472656 23.109375 C 135.632812 22.742188 135.476562 22.597656 135.238281 22.410156 C 135.160156 22.460938 135.078125 22.511719 135.003906 22.5625 C 134.898438 22.902344 134.792969 23.238281 134.6875 23.574219 Z M 126.207031 19.691406 C 126.496094 20.042969 126.679688 20.15625 127.148438 19.925781 C 127.191406 19.328125 127.347656 19.40625 127.464844 18.914062 C 127.386719 18.8125 127.308594 18.707031 127.230469 18.605469 C 126.992188 18.707031 126.757812 18.8125 126.523438 18.914062 C 126.390625 19.300781 126.285156 19.210938 126.207031 19.691406 Z M 123.222656 28.621094 C 124.488281 29.21875 126.484375 27.714844 127.148438 27.066406 C 127.070312 26.730469 126.992188 26.394531 126.914062 26.058594 C 126.757812 25.929688 126.601562 25.800781 126.441406 25.667969 C 125.613281 26.222656 123.792969 27.386719 123.222656 28.15625 C 123.222656 28.308594 123.222656 28.464844 123.222656 28.621094 Z M 115.53125 19.613281 C 115.734375 19.714844 115.804688 19.746094 116.15625 19.769531 C 117.09375 19.378906 117.34375 18.808594 117.964844 18.140625 C 117.9375 17.878906 117.910156 17.621094 117.886719 17.363281 C 117.570312 17.386719 117.257812 17.414062 116.941406 17.441406 C 116.265625 17.832031 115.59375 18.640625 115.53125 19.613281 Z M 113.722656 26.445312 C 114.046875 26.558594 113.976562 26.585938 114.273438 26.445312 C 114.699219 25.789062 118.730469 22.515625 117.726562 21.710938 C 114.824219 20.484375 113.640625 23.964844 113.722656 26.445312 Z M 110.035156 23.183594 C 110.21875 23.339844 110.398438 23.496094 110.582031 23.652344 C 110.921875 23.652344 111.261719 23.652344 111.605469 23.652344 C 111.84375 23.449219 111.921875 23.339844 111.996094 22.953125 C 111.789062 22.824219 111.578125 22.695312 111.367188 22.5625 C 111.34375 22.703125 110.199219 22.855469 110.035156 22.953125 C 110.035156 23.03125 110.035156 23.109375 110.035156 23.183594 Z M 106.65625 32.503906 C 107.765625 32.238281 112.59375 29.273438 110.269531 27.921875 C 110.085938 27.921875 109.902344 27.921875 109.71875 27.921875 C 109.199219 29.800781 107.277344 30.597656 106.65625 32.503906 Z M 99.984375 37.316406 C 100.011719 35.894531 100.035156 34.46875 100.0625 33.046875 C 101.136719 32.769531 106.714844 25.453125 107.601562 24.117188 C 107.40625 24.003906 107.335938 23.976562 106.972656 23.960938 C 106.453125 24.300781 101.539062 25.945312 100.613281 25.125 C 100.53125 25.074219 100.453125 25.023438 100.375 24.972656 C 100.351562 21.566406 103.078125 19.964844 105.007812 18.605469 C 106.429688 17.601562 107.28125 16.402344 108.464844 15.03125 C 109.664062 13.644531 112.8125 11.46875 113.566406 9.597656 C 113.910156 8.746094 113.96875 7.460938 113.960938 6.335938 C 115.84375 5.773438 117.296875 6.183594 118.515625 7.113281 C 117.269531 11.707031 109.542969 16.988281 106.027344 20.234375 C 105.1875 21.011719 104.226562 21.414062 103.515625 22.332031 C 103.570312 22.410156 103.621094 22.488281 103.675781 22.5625 C 104.9375 22.59375 106.746094 21.980469 107.757812 21.554688 C 109.144531 21.398438 110.53125 21.246094 111.917969 21.089844 C 113.0625 20.410156 112.875 19.453125 113.566406 18.292969 C 114.488281 16.75 115.183594 15.046875 116.785156 13.945312 C 117.492188 13.945312 118.199219 13.945312 118.90625 13.945312 C 119.152344 14.394531 119.636719 14.585938 119.925781 14.957031 C 120.613281 15.828125 121.023438 16.964844 121.652344 17.828125 C 122.40625 17.308594 124.152344 15.625 123.460938 14.335938 C 123.101562 13.664062 122.261719 13.207031 122.753906 12.316406 C 122.851562 11.527344 124.824219 10.648438 125.738281 10.6875 C 125.84375 11.652344 126.746094 12.78125 127.464844 13.167969 C 129.105469 13.863281 128.636719 11.824219 128.957031 10.761719 C 129.628906 8.53125 128.261719 3.4375 131.3125 3.464844 C 131.484375 3.824219 132.894531 4.839844 133.273438 5.25 C 133.328125 5.25 133.378906 5.25 133.429688 5.25 C 133.921875 6.28125 134.304688 6.796875 134.921875 7.65625 C 135.558594 8.546875 136.246094 10.585938 136.492188 11.773438 C 136.714844 12.847656 135.546875 13.449219 136.023438 14.644531 C 136.65625 16.246094 138.527344 17.199219 139.320312 18.683594 C 139.785156 19.550781 139.597656 20.652344 140.183594 21.167969 C 141.328125 22.167969 142.667969 22.535156 143.71875 23.730469 C 143.71875 24.015625 143.71875 24.296875 143.71875 24.582031 C 143.207031 24.804688 142.664062 25.3125 142.144531 25.59375 C 141.449219 25.96875 140.414062 25.875 139.949219 25.980469 C 138.175781 26.386719 135.957031 26.996094 135.003906 28.230469 C 134.308594 29.132812 134.335938 33.402344 133.902344 34.832031 C 133.875 35.425781 133.851562 36.023438 133.824219 36.617188 C 133.269531 37.605469 132.996094 39.214844 132.726562 40.265625 C 132.726562 40.578125 132.726562 40.886719 132.726562 41.199219 C 131.761719 43.046875 131.234375 44.867188 130.289062 46.476562 C 130.238281 47.148438 130.1875 47.824219 130.132812 48.496094 C 130.054688 48.46875 129.976562 48.445312 129.898438 48.417969 C 129.613281 47.824219 128.890625 47.46875 128.5625 46.945312 C 128.003906 46.046875 127.839844 44.988281 127.464844 44.070312 C 127.464844 43.527344 127.464844 42.984375 127.464844 42.441406 C 126.96875 40.449219 127.429688 36.375 127.070312 33.589844 C 126.867188 33.523438 126.796875 33.621094 126.914062 33.433594 C 124.5 33.957031 122.464844 34.472656 120.398438 35.375 C 119.273438 35.402344 118.148438 35.425781 117.019531 35.453125 C 115.800781 34.40625 116.015625 31.105469 116.550781 29.472656 C 117.613281 29.101562 119.328125 27.765625 119.769531 26.757812 C 119.796875 26.472656 119.820312 26.1875 119.847656 25.902344 C 121.160156 24.023438 123.242188 22.484375 122.203125 19.304688 C 122.152344 19.277344 122.097656 19.253906 122.046875 19.226562 C 118.527344 21.644531 119.191406 23.949219 116.941406 27.066406 C 115.417969 29.183594 114.226562 29.171875 113.09375 32.191406 C 112.09375 34.875 114.433594 38.804688 114.429688 40.886719 C 114.066406 41.039062 113.914062 41.34375 113.644531 41.585938 C 113.382812 41.585938 113.121094 41.585938 112.859375 41.585938 C 112.105469 40.421875 111.371094 39.476562 110.660156 38.09375 C 110.179688 37.152344 110.488281 35.9375 110.035156 35.0625 C 109.851562 35.089844 109.667969 35.117188 109.484375 35.140625 C 107.945312 37.527344 104.738281 39.03125 100.691406 39.023438 C 100.542969 38.695312 100.195312 38.65625 100.0625 38.402344 C 100.035156 38.039062 100.011719 37.679688 99.984375 37.316406 Z M 69.832031 26.058594 C 70.253906 26.476562 70.398438 27.320312 70.777344 27.765625 C 70.878906 27.742188 70.984375 27.714844 71.089844 27.6875 C 71.214844 27.054688 72.070312 25.457031 71.324219 24.894531 C 71.246094 24.789062 71.167969 24.6875 71.089844 24.582031 C 70.65625 24.574219 70.394531 24.617188 70.148438 24.738281 C 70.085938 25.394531 69.875 25.332031 69.832031 26.058594 Z M 64.652344 24.195312 C 64.675781 24.351562 64.703125 24.503906 64.730469 24.660156 C 64.78125 24.660156 64.835938 24.660156 64.886719 24.660156 C 64.964844 24.6875 65.042969 24.710938 65.121094 24.738281 C 65.28125 24.558594 65.4375 24.375 65.59375 24.195312 C 65.609375 23.785156 65.667969 23.652344 65.515625 23.339844 C 65.460938 23.261719 65.410156 23.183594 65.359375 23.109375 C 65.28125 23.160156 65.199219 23.210938 65.121094 23.261719 C 64.964844 23.574219 64.808594 23.882812 64.652344 24.195312 Z M 59.3125 25.980469 C 59.46875 26.058594 59.625 26.136719 59.785156 26.214844 C 60.605469 25.972656 60.988281 25.402344 61.589844 24.972656 C 61.589844 24.738281 61.589844 24.503906 61.589844 24.273438 C 61.535156 24.273438 61.484375 24.273438 61.433594 24.273438 C 61.300781 24.246094 61.171875 24.21875 61.039062 24.195312 C 60.488281 24.878906 59.820312 25.167969 59.3125 25.980469 Z M 54.445312 37.703125 C 54.675781 37.917969 56.679688 39.191406 56.878906 39.257812 C 57.949219 39.605469 63.75 38.613281 64.101562 38.246094 C 63.863281 37.933594 63.738281 37.644531 63.628906 37.160156 C 63.683594 37.160156 63.734375 37.160156 63.789062 37.160156 C 65.15625 36.570312 66.925781 40.285156 68.96875 36.539062 C 70.332031 36.96875 72.726562 39.003906 74.386719 38.167969 C 77.6875 36.515625 78.390625 31.390625 78.390625 25.902344 C 78.390625 24.113281 78.691406 21.535156 78.078125 20.234375 C 78.078125 19.535156 78.078125 18.835938 78.078125 18.140625 C 78.074219 16.796875 77.921875 13.949219 77.371094 12.859375 C 77.34375 12.136719 77.320312 11.410156 77.292969 10.6875 C 76.832031 8.828125 76.453125 6.894531 75.800781 5.40625 C 67.851562 4.296875 62.617188 6.761719 59.15625 11.539062 C 58.519531 12.414062 55.878906 15.726562 56.800781 17.519531 C 58.75 17.445312 61.324219 14.421875 62.765625 13.558594 C 62.84375 13.511719 64.101562 13.246094 64.101562 13.246094 C 70.578125 12.617188 66.589844 17.796875 66.535156 20.625 C 67.417969 21.242188 69.992188 23.570312 71.402344 22.796875 C 71.558594 22.617188 71.71875 22.433594 71.875 22.253906 C 73.78125 22.289062 78.140625 25.414062 75.957031 27.765625 C 75.214844 28.566406 73.8125 29.007812 72.894531 29.628906 C 71.648438 30.472656 70.402344 31.851562 69.125 32.8125 C 69.042969 32.878906 68.433594 33.035156 68.734375 33.199219 C 67.417969 33.917969 65.625 34.476562 64.179688 35.375 C 63.234375 35.964844 61.324219 35.261719 60.570312 35.453125 C 60.109375 34.605469 58.632812 33.003906 59.46875 31.335938 C 59.84375 30.648438 60.957031 29.777344 61.589844 29.320312 C 61.5625 28.691406 61.4375 28.621094 60.882812 28.699219 C 59.953125 29.765625 57.378906 27.1875 57.191406 26.679688 C 57.191406 25.953125 57.191406 25.230469 57.191406 24.503906 C 57.933594 24.074219 58.351562 23.5 59.15625 23.03125 C 61.011719 21.941406 64.589844 21.574219 63.628906 18.292969 C 63.472656 18.269531 63.316406 18.242188 63.160156 18.214844 C 61.976562 19.335938 57.40625 18.976562 56.40625 20.546875 C 55.742188 21.089844 56.429688 23.003906 55.859375 23.960938 C 55.277344 23.914062 55.527344 25.328125 55.152344 25.980469 C 53.953125 28.054688 55.339844 32.492188 54.835938 34.832031 C 54.625 35.816406 54.480469 37.03125 54.445312 37.703125 Z M 49.734375 38.402344 C 49.746094 35.003906 50.996094 31.71875 51.695312 28.777344 C 51.695312 28.078125 51.695312 27.378906 51.695312 26.679688 C 51.695312 23.097656 50.089844 19.683594 50.597656 16.507812 C 51.648438 9.929688 57.652344 6.371094 63.472656 4.550781 C 65.6875 3.859375 72.609375 1.699219 75.488281 3.386719 C 75.886719 3.621094 76.921875 3.492188 77.449219 3.851562 C 82.804688 7.550781 81.460938 19.648438 81.53125 28.078125 C 81.566406 32.179688 82.371094 38.222656 80.355469 40.65625 C 79.828125 41.289062 73.828125 45.378906 72.109375 44.460938 C 70.183594 43.425781 68.90625 40.949219 66.457031 40.808594 C 65.550781 40.757812 64.558594 41.554688 63.945312 41.898438 C 63.484375 42.152344 57.78125 42.953125 56.800781 42.671875 C 55.621094 42.335938 55.214844 41.511719 54.445312 40.808594 C 54.367188 40.808594 54.289062 40.808594 54.207031 40.808594 C 53.519531 41.421875 53.097656 42.300781 51.695312 42.285156 C 51.441406 41.761719 50.855469 41.3125 50.597656 40.808594 C 50.171875 39.980469 50.160156 39.226562 49.734375 38.402344 Z M 21.074219 19.925781 C 21.367188 20.707031 21.382812 21.273438 21.703125 21.863281 C 23.289062 20.996094 29.230469 17.214844 29.398438 15.578125 C 29.34375 15.578125 29.292969 15.578125 29.242188 15.578125 C 28.242188 15.15625 26.59375 15.601562 25.785156 15.886719 C 25.132812 15.886719 24.476562 15.886719 23.824219 15.886719 C 21.511719 16.394531 21.035156 17.484375 21.074219 19.925781 Z M 8.277344 24.195312 C 9.328125 25.191406 9.46875 25.976562 9.457031 27.921875 C 9.855469 28.09375 9.730469 28.101562 9.925781 28.386719 C 10.59375 28.445312 11.234375 28.445312 11.808594 28.308594 C 11.976562 27.828125 12.734375 26.996094 12.910156 26.445312 C 13.351562 25.066406 13.53125 21.5625 12.59375 20.777344 C 12.542969 20.699219 12.492188 20.625 12.4375 20.546875 C 10.859375 20.550781 8.765625 22.316406 8.355469 23.496094 C 8.328125 23.730469 8.300781 23.960938 8.277344 24.195312 Z M 1.210938 16.507812 C 2.589844 16.585938 3.285156 17.511719 3.957031 18.292969 C 4.402344 18.292969 4.847656 18.292969 5.292969 18.292969 C 5.894531 17.800781 6.496094 17.308594 7.097656 16.820312 C 8.316406 16.125 10.144531 15.867188 11.417969 15.03125 C 12.386719 14.394531 13.273438 14.976562 13.929688 13.789062 C 14.722656 11.925781 13.335938 10.128906 14.007812 7.8125 C 14.347656 6.648438 14.601562 5.878906 14.792969 4.550781 C 14.816406 4.40625 14.589844 1.578125 14.949219 1.835938 C 15.003906 1.757812 15.054688 1.679688 15.109375 1.601562 C 17.6875 1.527344 21.242188 5.441406 23.351562 6.726562 C 23.488281 8.902344 22.660156 10.78125 23.039062 12.703125 C 25.585938 13.917969 29.148438 12.492188 31.910156 12.003906 C 32.929688 12.058594 33.953125 12.109375 34.972656 12.160156 C 35.453125 12.410156 35.949219 13.164062 36.464844 13.167969 C 36.464844 13.402344 36.464844 13.636719 36.464844 13.867188 C 35.285156 14.699219 34.507812 15.949219 33.558594 16.972656 C 32.714844 17.890625 30.378906 19.011719 29.003906 19.847656 C 27.992188 20.464844 26.46875 20.875 26.414062 22.410156 C 26.597656 22.5625 26.78125 22.71875 26.964844 22.875 C 28.898438 23.757812 31.652344 22.746094 32.539062 24.738281 C 32.714844 25.136719 33.070312 25.523438 32.617188 25.980469 C 31.449219 27.816406 28.289062 26.402344 26.570312 27.53125 C 25.125 28.484375 23.746094 29.746094 22.566406 30.714844 C 21.488281 31.605469 20.097656 31.042969 19.347656 32.269531 C 18.488281 33.679688 19.265625 36.324219 18.957031 37.9375 C 18.824219 38.300781 18.695312 38.660156 18.5625 39.023438 C 16.300781 39.371094 16.832031 43.96875 15.1875 45.46875 C 14.675781 42.59375 12.957031 40.09375 12.4375 37.625 C 12.210938 36.542969 12.851562 35.144531 11.96875 34.445312 C 11.476562 34.207031 10.480469 34.347656 9.925781 34.289062 C 9.1875 32.71875 8.699219 30.609375 6.941406 30.019531 C 6.191406 29.765625 5.84375 30.3125 4.664062 30.328125 C 4.453125 29.851562 4.210938 28.824219 3.800781 28.230469 C 3.308594 27.519531 2.144531 27.257812 1.601562 26.601562 C 1.601562 26.523438 1.601562 26.445312 1.601562 26.367188 C 1.136719 25.304688 1.59375 24.488281 1.367188 23.730469 C 1.242188 23.316406 0.605469 22.929688 0.503906 22.332031 C 1.457031 21.242188 1.230469 19.039062 1.210938 16.507812 " />
    </g>
</svg>